ISO-10303-21;
HEADER;
FILE_DESCRIPTION(('FreeCAD Model'),'2;1');
FILE_NAME('Open CASCADE Shape Model','2024-10-23T02:24:25',(''),(''),
  'Open CASCADE STEP processor 7.6','FreeCAD','Unknown');
FILE_SCHEMA(('AUTOMOTIVE_DESIGN { 1 0 10303 214 1 1 1 1 }'));
ENDSEC;
DATA;
#1 = APPLICATION_PROTOCOL_DEFINITION('international standard',
  'automotive_design',2000,#2);
#2 = APPLICATION_CONTEXT(
  'core data for automotive mechanical design processes');
#3 = SHAPE_DEFINITION_REPRESENTATION(#4,#10);
#4 = PRODUCT_DEFINITION_SHAPE('','',#5);
#5 = PRODUCT_DEFINITION('design','',#6,#9);
#6 = PRODUCT_DEFINITION_FORMATION('','',#7);
#7 = PRODUCT('D_T-1_P10.16mm_Horizontal','D_T-1_P10.16mm_Horizontal','',
  (#8));
#8 = PRODUCT_CONTEXT('',#2,'mechanical');
#9 = PRODUCT_DEFINITION_CONTEXT('part definition',#2,'design');
#10 = ADVANCED_BREP_SHAPE_REPRESENTATION('',(#11,#15),#377);
#11 = AXIS2_PLACEMENT_3D('',#12,#13,#14);
#12 = CARTESIAN_POINT('',(0.,0.,0.));
#13 = DIRECTION('',(0.,0.,1.));
#14 = DIRECTION('',(1.,0.,-0.));
#15 = MANIFOLD_SOLID_BREP('',#16);
#16 = CLOSED_SHELL('',(#17,#50,#70,#90,#116,#141,#161,#187,#212,#232,
    #258,#283,#308,#334,#343,#368));
#17 = ADVANCED_FACE('',(#18),#45,.T.);
#18 = FACE_BOUND('',#19,.T.);
#19 = EDGE_LOOP('',(#20,#29,#37,#44));
#20 = ORIENTED_EDGE('',*,*,#21,.T.);
#21 = EDGE_CURVE('',#22,#22,#24,.T.);
#22 = VERTEX_POINT('',#23);
#23 = CARTESIAN_POINT('',(3.96,2.071676163951E-15,3.11));
#24 = CIRCLE('',#25,1.31);
#25 = AXIS2_PLACEMENT_3D('',#26,#27,#28);
#26 = CARTESIAN_POINT('',(3.96,7.993605777301E-16,1.8));
#27 = DIRECTION('',(1.,0.,-0.));
#28 = DIRECTION('',(0.,9.71233271924E-16,1.));
#29 = ORIENTED_EDGE('',*,*,#30,.T.);
#30 = EDGE_CURVE('',#22,#31,#33,.T.);
#31 = VERTEX_POINT('',#32);
#32 = CARTESIAN_POINT('',(4.76,2.071676163951E-15,3.11));
#33 = LINE('',#34,#35);
#34 = CARTESIAN_POINT('',(3.96,2.071676163951E-15,3.11));
#35 = VECTOR('',#36,1.);
#36 = DIRECTION('',(1.,0.,0.));
#37 = ORIENTED_EDGE('',*,*,#38,.F.);
#38 = EDGE_CURVE('',#31,#31,#39,.T.);
#39 = CIRCLE('',#40,1.31);
#40 = AXIS2_PLACEMENT_3D('',#41,#42,#43);
#41 = CARTESIAN_POINT('',(4.76,7.993605777301E-16,1.8));
#42 = DIRECTION('',(1.,0.,-0.));
#43 = DIRECTION('',(0.,9.71233271924E-16,1.));
#44 = ORIENTED_EDGE('',*,*,#30,.F.);
#45 = CYLINDRICAL_SURFACE('',#46,1.31);
#46 = AXIS2_PLACEMENT_3D('',#47,#48,#49);
#47 = CARTESIAN_POINT('',(3.96,7.993605777301E-16,1.8));
#48 = DIRECTION('',(1.,0.,0.));
#49 = DIRECTION('',(-0.,9.71233271924E-16,1.));
#50 = ADVANCED_FACE('',(#51,#54),#65,.F.);
#51 = FACE_BOUND('',#52,.T.);
#52 = EDGE_LOOP('',(#53));
#53 = ORIENTED_EDGE('',*,*,#21,.F.);
#54 = FACE_BOUND('',#55,.T.);
#55 = EDGE_LOOP('',(#56));
#56 = ORIENTED_EDGE('',*,*,#57,.F.);
#57 = EDGE_CURVE('',#58,#58,#60,.T.);
#58 = VERTEX_POINT('',#59);
#59 = CARTESIAN_POINT('',(3.96,2.063514787841E-15,3.098459255873));
#60 = CIRCLE('',#61,1.298459255873);
#61 = AXIS2_PLACEMENT_3D('',#62,#63,#64);
#62 = CARTESIAN_POINT('',(3.96,7.993605777301E-16,1.8));
#63 = DIRECTION('',(-1.,0.,0.));
#64 = DIRECTION('',(0.,9.735801908251E-16,1.));
#65 = PLANE('',#66);
#66 = AXIS2_PLACEMENT_3D('',#67,#68,#69);
#67 = CARTESIAN_POINT('',(3.96,7.993605777301E-16,1.8));
#68 = DIRECTION('',(1.,0.,0.));
#69 = DIRECTION('',(-0.,9.759634960658E-16,1.));
#70 = ADVANCED_FACE('',(#71,#74),#85,.T.);
#71 = FACE_BOUND('',#72,.T.);
#72 = EDGE_LOOP('',(#73));
#73 = ORIENTED_EDGE('',*,*,#38,.T.);
#74 = FACE_BOUND('',#75,.T.);
#75 = EDGE_LOOP('',(#76));
#76 = ORIENTED_EDGE('',*,*,#77,.F.);
#77 = EDGE_CURVE('',#78,#78,#80,.T.);
#78 = VERTEX_POINT('',#79);
#79 = CARTESIAN_POINT('',(4.76,2.065014825803E-15,3.1));
#80 = CIRCLE('',#81,1.3);
#81 = AXIS2_PLACEMENT_3D('',#82,#83,#84);
#82 = CARTESIAN_POINT('',(4.76,7.993605777301E-16,1.8));
#83 = DIRECTION('',(1.,0.,-0.));
#84 = DIRECTION('',(0.,9.735801908251E-16,1.));
#85 = PLANE('',#86);
#86 = AXIS2_PLACEMENT_3D('',#87,#88,#89);
#87 = CARTESIAN_POINT('',(4.76,7.993605777301E-16,1.8));
#88 = DIRECTION('',(1.,0.,0.));
#89 = DIRECTION('',(-0.,9.71233271924E-16,1.));
#90 = ADVANCED_FACE('',(#91),#111,.T.);
#91 = FACE_BOUND('',#92,.T.);
#92 = EDGE_LOOP('',(#93,#102,#109,#110));
#93 = ORIENTED_EDGE('',*,*,#94,.T.);
#94 = EDGE_CURVE('',#58,#95,#97,.T.);
#95 = VERTEX_POINT('',#96);
#96 = CARTESIAN_POINT('',(3.48,1.558753126574E-15,2.58));
#97 = CIRCLE('',#98,0.52);
#98 = AXIS2_PLACEMENT_3D('',#99,#100,#101);
#99 = CARTESIAN_POINT('',(4.,1.558753126574E-15,2.58));
#100 = DIRECTION('',(0.,-1.,9.735801908251E-16));
#101 = DIRECTION('',(0.,9.735801908251E-16,1.));
#102 = ORIENTED_EDGE('',*,*,#103,.T.);
#103 = EDGE_CURVE('',#95,#95,#104,.T.);
#104 = CIRCLE('',#105,0.78);
#105 = AXIS2_PLACEMENT_3D('',#106,#107,#108);
#106 = CARTESIAN_POINT('',(3.48,7.993605777301E-16,1.8));
#107 = DIRECTION('',(1.,0.,-0.));
#108 = DIRECTION('',(0.,9.735801908251E-16,1.));
#109 = ORIENTED_EDGE('',*,*,#94,.F.);
#110 = ORIENTED_EDGE('',*,*,#57,.T.);
#111 = TOROIDAL_SURFACE('',#112,0.78,0.52);
#112 = AXIS2_PLACEMENT_3D('',#113,#114,#115);
#113 = CARTESIAN_POINT('',(4.,7.993605777301E-16,1.8));
#114 = DIRECTION('',(-1.,0.,0.));
#115 = DIRECTION('',(0.,9.735801908251E-16,1.));
#116 = ADVANCED_FACE('',(#117),#136,.T.);
#117 = FACE_BOUND('',#118,.T.);
#118 = EDGE_LOOP('',(#119,#120,#128,#135));
#119 = ORIENTED_EDGE('',*,*,#77,.T.);
#120 = ORIENTED_EDGE('',*,*,#121,.T.);
#121 = EDGE_CURVE('',#78,#122,#124,.T.);
#122 = VERTEX_POINT('',#123);
#123 = CARTESIAN_POINT('',(6.16,2.065014825803E-15,3.1));
#124 = LINE('',#125,#126);
#125 = CARTESIAN_POINT('',(3.48,2.065014825803E-15,3.1));
#126 = VECTOR('',#127,1.);
#127 = DIRECTION('',(1.,0.,0.));
#128 = ORIENTED_EDGE('',*,*,#129,.F.);
#129 = EDGE_CURVE('',#122,#122,#130,.T.);
#130 = CIRCLE('',#131,1.3);
#131 = AXIS2_PLACEMENT_3D('',#132,#133,#134);
#132 = CARTESIAN_POINT('',(6.16,7.993605777301E-16,1.8));
#133 = DIRECTION('',(1.,0.,-0.));
#134 = DIRECTION('',(0.,9.735801908251E-16,1.));
#135 = ORIENTED_EDGE('',*,*,#121,.F.);
#136 = CYLINDRICAL_SURFACE('',#137,1.3);
#137 = AXIS2_PLACEMENT_3D('',#138,#139,#140);
#138 = CARTESIAN_POINT('',(3.48,7.993605777301E-16,1.8));
#139 = DIRECTION('',(1.,0.,0.));
#140 = DIRECTION('',(-0.,9.735801908251E-16,1.));
#141 = ADVANCED_FACE('',(#142,#145),#156,.F.);
#142 = FACE_BOUND('',#143,.T.);
#143 = EDGE_LOOP('',(#144));
#144 = ORIENTED_EDGE('',*,*,#103,.F.);
#145 = FACE_BOUND('',#146,.T.);
#146 = EDGE_LOOP('',(#147));
#147 = ORIENTED_EDGE('',*,*,#148,.T.);
#148 = EDGE_CURVE('',#149,#149,#151,.T.);
#149 = VERTEX_POINT('',#150);
#150 = CARTESIAN_POINT('',(3.48,7.660538869914E-16,1.45));
#151 = CIRCLE('',#152,0.35);
#152 = AXIS2_PLACEMENT_3D('',#153,#154,#155);
#153 = CARTESIAN_POINT('',(3.48,8.437694987151E-16,1.8));
#154 = DIRECTION('',(1.,0.,0.));
#155 = DIRECTION('',(0.,-2.22044604925E-16,-1.));
#156 = PLANE('',#157);
#157 = AXIS2_PLACEMENT_3D('',#158,#159,#160);
#158 = CARTESIAN_POINT('',(3.48,7.993605777301E-16,1.8));
#159 = DIRECTION('',(1.,0.,0.));
#160 = DIRECTION('',(-0.,9.735801908251E-16,1.));
#161 = ADVANCED_FACE('',(#162),#182,.T.);
#162 = FACE_BOUND('',#163,.T.);
#163 = EDGE_LOOP('',(#164,#165,#174,#181));
#164 = ORIENTED_EDGE('',*,*,#129,.T.);
#165 = ORIENTED_EDGE('',*,*,#166,.F.);
#166 = EDGE_CURVE('',#167,#122,#169,.T.);
#167 = VERTEX_POINT('',#168);
#168 = CARTESIAN_POINT('',(6.68,1.558753126574E-15,2.58));
#169 = CIRCLE('',#170,0.52);
#170 = AXIS2_PLACEMENT_3D('',#171,#172,#173);
#171 = CARTESIAN_POINT('',(6.16,1.558753126574E-15,2.58));
#172 = DIRECTION('',(0.,-1.,9.735801908251E-16));
#173 = DIRECTION('',(0.,9.735801908251E-16,1.));
#174 = ORIENTED_EDGE('',*,*,#175,.F.);
#175 = EDGE_CURVE('',#167,#167,#176,.T.);
#176 = CIRCLE('',#177,0.78);
#177 = AXIS2_PLACEMENT_3D('',#178,#179,#180);
#178 = CARTESIAN_POINT('',(6.68,7.993605777301E-16,1.8));
#179 = DIRECTION('',(1.,0.,-0.));
#180 = DIRECTION('',(0.,9.735801908251E-16,1.));
#181 = ORIENTED_EDGE('',*,*,#166,.T.);
#182 = TOROIDAL_SURFACE('',#183,0.78,0.52);
#183 = AXIS2_PLACEMENT_3D('',#184,#185,#186);
#184 = CARTESIAN_POINT('',(6.16,7.993605777301E-16,1.8));
#185 = DIRECTION('',(-1.,0.,0.));
#186 = DIRECTION('',(0.,9.735801908251E-16,1.));
#187 = ADVANCED_FACE('',(#188),#207,.T.);
#188 = FACE_BOUND('',#189,.T.);
#189 = EDGE_LOOP('',(#190,#199,#205,#206));
#190 = ORIENTED_EDGE('',*,*,#191,.F.);
#191 = EDGE_CURVE('',#192,#192,#194,.T.);
#192 = VERTEX_POINT('',#193);
#193 = CARTESIAN_POINT('',(0.7,7.660538869914E-16,1.45));
#194 = CIRCLE('',#195,0.35);
#195 = AXIS2_PLACEMENT_3D('',#196,#197,#198);
#196 = CARTESIAN_POINT('',(0.7,8.437694987151E-16,1.8));
#197 = DIRECTION('',(-1.,-4.078893220341E-32,-1.836970198721E-16));
#198 = DIRECTION('',(-1.836970198721E-16,2.22044604925E-16,1.));
#199 = ORIENTED_EDGE('',*,*,#200,.T.);
#200 = EDGE_CURVE('',#192,#149,#201,.T.);
#201 = LINE('',#202,#203);
#202 = CARTESIAN_POINT('',(0.7,7.660538869914E-16,1.45));
#203 = VECTOR('',#204,1.);
#204 = DIRECTION('',(1.,0.,0.));
#205 = ORIENTED_EDGE('',*,*,#148,.F.);
#206 = ORIENTED_EDGE('',*,*,#200,.F.);
#207 = CYLINDRICAL_SURFACE('',#208,0.35);
#208 = AXIS2_PLACEMENT_3D('',#209,#210,#211);
#209 = CARTESIAN_POINT('',(0.7,8.437694987151E-16,1.8));
#210 = DIRECTION('',(1.,0.,0.));
#211 = DIRECTION('',(0.,-2.22044604925E-16,-1.));
#212 = ADVANCED_FACE('',(#213,#216),#227,.T.);
#213 = FACE_BOUND('',#214,.F.);
#214 = EDGE_LOOP('',(#215));
#215 = ORIENTED_EDGE('',*,*,#175,.F.);
#216 = FACE_BOUND('',#217,.F.);
#217 = EDGE_LOOP('',(#218));
#218 = ORIENTED_EDGE('',*,*,#219,.T.);
#219 = EDGE_CURVE('',#220,#220,#222,.T.);
#220 = VERTEX_POINT('',#221);
#221 = CARTESIAN_POINT('',(6.68,7.660538869914E-16,1.45));
#222 = CIRCLE('',#223,0.35);
#223 = AXIS2_PLACEMENT_3D('',#224,#225,#226);
#224 = CARTESIAN_POINT('',(6.68,8.437694987151E-16,1.8));
#225 = DIRECTION('',(1.,0.,0.));
#226 = DIRECTION('',(0.,-2.22044604925E-16,-1.));
#227 = PLANE('',#228);
#228 = AXIS2_PLACEMENT_3D('',#229,#230,#231);
#229 = CARTESIAN_POINT('',(6.68,7.993605777301E-16,1.8));
#230 = DIRECTION('',(1.,0.,0.));
#231 = DIRECTION('',(-0.,9.735801908251E-16,1.));
#232 = ADVANCED_FACE('',(#233),#253,.T.);
#233 = FACE_BOUND('',#234,.T.);
#234 = EDGE_LOOP('',(#235,#244,#245,#246));
#235 = ORIENTED_EDGE('',*,*,#236,.T.);
#236 = EDGE_CURVE('',#237,#192,#239,.T.);
#237 = VERTEX_POINT('',#238);
#238 = CARTESIAN_POINT('',(0.35,6.883382752676E-16,1.1));
#239 = CIRCLE('',#240,0.35);
#240 = AXIS2_PLACEMENT_3D('',#241,#242,#243);
#241 = CARTESIAN_POINT('',(0.7,8.169261891781E-16,1.1));
#242 = DIRECTION('',(0.,1.,-2.22044604925E-16));
#243 = DIRECTION('',(1.,0.,0.));
#244 = ORIENTED_EDGE('',*,*,#191,.T.);
#245 = ORIENTED_EDGE('',*,*,#236,.F.);
#246 = ORIENTED_EDGE('',*,*,#247,.T.);
#247 = EDGE_CURVE('',#237,#237,#248,.T.);
#248 = CIRCLE('',#249,0.35);
#249 = AXIS2_PLACEMENT_3D('',#250,#251,#252);
#250 = CARTESIAN_POINT('',(0.,6.883382752676E-16,1.1));
#251 = DIRECTION('',(-0.,2.22044604925E-16,1.));
#252 = DIRECTION('',(1.,0.,0.));
#253 = TOROIDAL_SURFACE('',#254,0.7,0.35);
#254 = AXIS2_PLACEMENT_3D('',#255,#256,#257);
#255 = CARTESIAN_POINT('',(0.7,6.883382752676E-16,1.1));
#256 = DIRECTION('',(0.,1.,-2.22044604925E-16));
#257 = DIRECTION('',(1.,0.,0.));
#258 = ADVANCED_FACE('',(#259),#278,.T.);
#259 = FACE_BOUND('',#260,.T.);
#260 = EDGE_LOOP('',(#261,#262,#270,#277));
#261 = ORIENTED_EDGE('',*,*,#219,.T.);
#262 = ORIENTED_EDGE('',*,*,#263,.T.);
#263 = EDGE_CURVE('',#220,#264,#266,.T.);
#264 = VERTEX_POINT('',#265);
#265 = CARTESIAN_POINT('',(9.46,7.660538869914E-16,1.45));
#266 = LINE('',#267,#268);
#267 = CARTESIAN_POINT('',(0.7,7.660538869914E-16,1.45));
#268 = VECTOR('',#269,1.);
#269 = DIRECTION('',(1.,0.,0.));
#270 = ORIENTED_EDGE('',*,*,#271,.F.);
#271 = EDGE_CURVE('',#264,#264,#272,.T.);
#272 = CIRCLE('',#273,0.35);
#273 = AXIS2_PLACEMENT_3D('',#274,#275,#276);
#274 = CARTESIAN_POINT('',(9.46,8.437694987151E-16,1.8));
#275 = DIRECTION('',(1.,0.,0.));
#276 = DIRECTION('',(0.,-2.22044604925E-16,-1.));
#277 = ORIENTED_EDGE('',*,*,#263,.F.);
#278 = CYLINDRICAL_SURFACE('',#279,0.35);
#279 = AXIS2_PLACEMENT_3D('',#280,#281,#282);
#280 = CARTESIAN_POINT('',(0.7,8.437694987151E-16,1.8));
#281 = DIRECTION('',(1.,0.,0.));
#282 = DIRECTION('',(0.,-2.22044604925E-16,-1.));
#283 = ADVANCED_FACE('',(#284),#303,.T.);
#284 = FACE_BOUND('',#285,.T.);
#285 = EDGE_LOOP('',(#286,#294,#295,#296));
#286 = ORIENTED_EDGE('',*,*,#287,.T.);
#287 = EDGE_CURVE('',#288,#237,#290,.T.);
#288 = VERTEX_POINT('',#289);
#289 = CARTESIAN_POINT('',(0.35,-1.967475784028E-16,-2.5));
#290 = LINE('',#291,#292);
#291 = CARTESIAN_POINT('',(0.35,6.883382752676E-16,1.1));
#292 = VECTOR('',#293,1.);
#293 = DIRECTION('',(0.,2.22044604925E-16,1.));
#294 = ORIENTED_EDGE('',*,*,#247,.F.);
#295 = ORIENTED_EDGE('',*,*,#287,.F.);
#296 = ORIENTED_EDGE('',*,*,#297,.T.);
#297 = EDGE_CURVE('',#288,#288,#298,.T.);
#298 = CIRCLE('',#299,0.35);
#299 = AXIS2_PLACEMENT_3D('',#300,#301,#302);
#300 = CARTESIAN_POINT('',(0.,-1.110223024625E-16,-2.5));
#301 = DIRECTION('',(-0.,2.22044604925E-16,1.));
#302 = DIRECTION('',(1.,0.,0.));
#303 = CYLINDRICAL_SURFACE('',#304,0.35);
#304 = AXIS2_PLACEMENT_3D('',#305,#306,#307);
#305 = CARTESIAN_POINT('',(0.,6.883382752676E-16,1.1));
#306 = DIRECTION('',(0.,2.22044604925E-16,1.));
#307 = DIRECTION('',(1.,0.,-0.));
#308 = ADVANCED_FACE('',(#309),#329,.T.);
#309 = FACE_BOUND('',#310,.T.);
#310 = EDGE_LOOP('',(#311,#320,#327,#328));
#311 = ORIENTED_EDGE('',*,*,#312,.T.);
#312 = EDGE_CURVE('',#264,#313,#315,.T.);
#313 = VERTEX_POINT('',#314);
#314 = CARTESIAN_POINT('',(9.81,6.883382752676E-16,1.1));
#315 = CIRCLE('',#316,0.35);
#316 = AXIS2_PLACEMENT_3D('',#317,#318,#319);
#317 = CARTESIAN_POINT('',(9.46,8.169261891781E-16,1.1));
#318 = DIRECTION('',(0.,1.,-2.22044604925E-16));
#319 = DIRECTION('',(1.,0.,0.));
#320 = ORIENTED_EDGE('',*,*,#321,.T.);
#321 = EDGE_CURVE('',#313,#313,#322,.T.);
#322 = CIRCLE('',#323,0.35);
#323 = AXIS2_PLACEMENT_3D('',#324,#325,#326);
#324 = CARTESIAN_POINT('',(10.16,6.883382752676E-16,1.1));
#325 = DIRECTION('',(-2.449293598295E-16,2.22044604925E-16,1.));
#326 = DIRECTION('',(1.,5.438524293788E-32,2.449293598295E-16));
#327 = ORIENTED_EDGE('',*,*,#312,.F.);
#328 = ORIENTED_EDGE('',*,*,#271,.T.);
#329 = TOROIDAL_SURFACE('',#330,0.7,0.35);
#330 = AXIS2_PLACEMENT_3D('',#331,#332,#333);
#331 = CARTESIAN_POINT('',(9.46,6.883382752676E-16,1.1));
#332 = DIRECTION('',(0.,1.,-2.22044604925E-16));
#333 = DIRECTION('',(1.,0.,0.));
#334 = ADVANCED_FACE('',(#335),#338,.T.);
#335 = FACE_BOUND('',#336,.F.);
#336 = EDGE_LOOP('',(#337));
#337 = ORIENTED_EDGE('',*,*,#297,.T.);
#338 = PLANE('',#339);
#339 = AXIS2_PLACEMENT_3D('',#340,#341,#342);
#340 = CARTESIAN_POINT('',(0.35,-1.110223024625E-16,-2.5));
#341 = DIRECTION('',(0.,0.,-1.));
#342 = DIRECTION('',(-1.,0.,0.));
#343 = ADVANCED_FACE('',(#344),#363,.T.);
#344 = FACE_BOUND('',#345,.T.);
#345 = EDGE_LOOP('',(#346,#354,#361,#362));
#346 = ORIENTED_EDGE('',*,*,#347,.T.);
#347 = EDGE_CURVE('',#313,#348,#350,.T.);
#348 = VERTEX_POINT('',#349);
#349 = CARTESIAN_POINT('',(9.81,-1.967475784028E-16,-2.5));
#350 = LINE('',#351,#352);
#351 = CARTESIAN_POINT('',(9.81,6.883382752676E-16,1.1));
#352 = VECTOR('',#353,1.);
#353 = DIRECTION('',(0.,-2.22044604925E-16,-1.));
#354 = ORIENTED_EDGE('',*,*,#355,.F.);
#355 = EDGE_CURVE('',#348,#348,#356,.T.);
#356 = CIRCLE('',#357,0.35);
#357 = AXIS2_PLACEMENT_3D('',#358,#359,#360);
#358 = CARTESIAN_POINT('',(10.16,-1.110223024625E-16,-2.5));
#359 = DIRECTION('',(-0.,-2.22044604925E-16,-1.));
#360 = DIRECTION('',(-1.,0.,0.));
#361 = ORIENTED_EDGE('',*,*,#347,.F.);
#362 = ORIENTED_EDGE('',*,*,#321,.F.);
#363 = CYLINDRICAL_SURFACE('',#364,0.35);
#364 = AXIS2_PLACEMENT_3D('',#365,#366,#367);
#365 = CARTESIAN_POINT('',(10.16,6.883382752676E-16,1.1));
#366 = DIRECTION('',(0.,-2.22044604925E-16,-1.));
#367 = DIRECTION('',(-1.,-0.,0.));
#368 = ADVANCED_FACE('',(#369),#372,.F.);
#369 = FACE_BOUND('',#370,.T.);
#370 = EDGE_LOOP('',(#371));
#371 = ORIENTED_EDGE('',*,*,#355,.T.);
#372 = PLANE('',#373);
#373 = AXIS2_PLACEMENT_3D('',#374,#375,#376);
#374 = CARTESIAN_POINT('',(9.81,-1.110223024625E-16,-2.5));
#375 = DIRECTION('',(0.,0.,1.));
#376 = DIRECTION('',(1.,0.,-0.));
#377 = ( GEOMETRIC_REPRESENTATION_CONTEXT(3) 
GLOBAL_UNCERTAINTY_ASSIGNED_CONTEXT((#381)) GLOBAL_UNIT_ASSIGNED_CONTEXT
((#378,#379,#380)) REPRESENTATION_CONTEXT('Context #1',
  '3D Context with UNIT and UNCERTAINTY') );
#378 = ( LENGTH_UNIT() NAMED_UNIT(*) SI_UNIT(.MILLI.,.METRE.) );
#379 = ( NAMED_UNIT(*) PLANE_ANGLE_UNIT() SI_UNIT($,.RADIAN.) );
#380 = ( NAMED_UNIT(*) SI_UNIT($,.STERADIAN.) SOLID_ANGLE_UNIT() );
#381 = UNCERTAINTY_MEASURE_WITH_UNIT(LENGTH_MEASURE(1.E-07),#378,
  'distance_accuracy_value','confusion accuracy');
#382 = PRODUCT_RELATED_PRODUCT_CATEGORY('part',$,(#7));
#383 = MECHANICAL_DESIGN_GEOMETRIC_PRESENTATION_REPRESENTATION('',(#384,
    #395,#403,#411,#418,#426,#433,#440,#447,#455,#462,#469,#476,#483,
    #490,#497,#504),#377);
#384 = STYLED_ITEM('color',(#385),#15);
#385 = PRESENTATION_STYLE_ASSIGNMENT((#386,#392));
#386 = SURFACE_STYLE_USAGE(.BOTH.,#387);
#387 = SURFACE_SIDE_STYLE('',(#388));
#388 = SURFACE_STYLE_FILL_AREA(#389);
#389 = FILL_AREA_STYLE('',(#390));
#390 = FILL_AREA_STYLE_COLOUR('',#391);
#391 = COLOUR_RGB('',0.800000010877,0.800000010877,0.800000010877);
#392 = CURVE_STYLE('',#393,POSITIVE_LENGTH_MEASURE(0.1),#394);
#393 = DRAUGHTING_PRE_DEFINED_CURVE_FONT('continuous');
#394 = COLOUR_RGB('',9.803921802644E-02,9.803921802644E-02,
  9.803921802644E-02);
#395 = OVER_RIDING_STYLED_ITEM('overriding color',(#396),#17,#384);
#396 = PRESENTATION_STYLE_ASSIGNMENT((#397));
#397 = SURFACE_STYLE_USAGE(.BOTH.,#398);
#398 = SURFACE_SIDE_STYLE('',(#399));
#399 = SURFACE_STYLE_FILL_AREA(#400);
#400 = FILL_AREA_STYLE('',(#401));
#401 = FILL_AREA_STYLE_COLOUR('',#402);
#402 = DRAUGHTING_PRE_DEFINED_COLOUR('black');
#403 = OVER_RIDING_STYLED_ITEM('overriding color',(#404),#50,#384);
#404 = PRESENTATION_STYLE_ASSIGNMENT((#405));
#405 = SURFACE_STYLE_USAGE(.BOTH.,#406);
#406 = SURFACE_SIDE_STYLE('',(#407));
#407 = SURFACE_STYLE_FILL_AREA(#408);
#408 = FILL_AREA_STYLE('',(#409));
#409 = FILL_AREA_STYLE_COLOUR('',#410);
#410 = COLOUR_RGB('',0.699999984889,9.999999991362E-02,
  5.000000142576E-02);
#411 = OVER_RIDING_STYLED_ITEM('overriding color',(#412),#70,#384);
#412 = PRESENTATION_STYLE_ASSIGNMENT((#413));
#413 = SURFACE_STYLE_USAGE(.BOTH.,#414);
#414 = SURFACE_SIDE_STYLE('',(#415));
#415 = SURFACE_STYLE_FILL_AREA(#416);
#416 = FILL_AREA_STYLE('',(#417));
#417 = FILL_AREA_STYLE_COLOUR('',#410);
#418 = OVER_RIDING_STYLED_ITEM('overriding color',(#419),#90,#384);
#419 = PRESENTATION_STYLE_ASSIGNMENT((#420));
#420 = SURFACE_STYLE_USAGE(.BOTH.,#421);
#421 = SURFACE_SIDE_STYLE('',(#422));
#422 = SURFACE_STYLE_FILL_AREA(#423);
#423 = FILL_AREA_STYLE('',(#424));
#424 = FILL_AREA_STYLE_COLOUR('',#425);
#425 = COLOUR_RGB('',0.776470591567,0.776470591567,0.776470591567);
#426 = OVER_RIDING_STYLED_ITEM('overriding color',(#427),#116,#384);
#427 = PRESENTATION_STYLE_ASSIGNMENT((#428));
#428 = SURFACE_STYLE_USAGE(.BOTH.,#429);
#429 = SURFACE_SIDE_STYLE('',(#430));
#430 = SURFACE_STYLE_FILL_AREA(#431);
#431 = FILL_AREA_STYLE('',(#432));
#432 = FILL_AREA_STYLE_COLOUR('',#425);
#433 = OVER_RIDING_STYLED_ITEM('overriding color',(#434),#141,#384);
#434 = PRESENTATION_STYLE_ASSIGNMENT((#435));
#435 = SURFACE_STYLE_USAGE(.BOTH.,#436);
#436 = SURFACE_SIDE_STYLE('',(#437));
#437 = SURFACE_STYLE_FILL_AREA(#438);
#438 = FILL_AREA_STYLE('',(#439));
#439 = FILL_AREA_STYLE_COLOUR('',#425);
#440 = OVER_RIDING_STYLED_ITEM('overriding color',(#441),#161,#384);
#441 = PRESENTATION_STYLE_ASSIGNMENT((#442));
#442 = SURFACE_STYLE_USAGE(.BOTH.,#443);
#443 = SURFACE_SIDE_STYLE('',(#444));
#444 = SURFACE_STYLE_FILL_AREA(#445);
#445 = FILL_AREA_STYLE('',(#446));
#446 = FILL_AREA_STYLE_COLOUR('',#425);
#447 = OVER_RIDING_STYLED_ITEM('overriding color',(#448),#187,#384);
#448 = PRESENTATION_STYLE_ASSIGNMENT((#449));
#449 = SURFACE_STYLE_USAGE(.BOTH.,#450);
#450 = SURFACE_SIDE_STYLE('',(#451));
#451 = SURFACE_STYLE_FILL_AREA(#452);
#452 = FILL_AREA_STYLE('',(#453));
#453 = FILL_AREA_STYLE_COLOUR('',#454);
#454 = COLOUR_RGB('',0.823999987314,0.819999987296,0.781000009244);
#455 = OVER_RIDING_STYLED_ITEM('overriding color',(#456),#212,#384);
#456 = PRESENTATION_STYLE_ASSIGNMENT((#457));
#457 = SURFACE_STYLE_USAGE(.BOTH.,#458);
#458 = SURFACE_SIDE_STYLE('',(#459));
#459 = SURFACE_STYLE_FILL_AREA(#460);
#460 = FILL_AREA_STYLE('',(#461));
#461 = FILL_AREA_STYLE_COLOUR('',#425);
#462 = OVER_RIDING_STYLED_ITEM('overriding color',(#463),#232,#384);
#463 = PRESENTATION_STYLE_ASSIGNMENT((#464));
#464 = SURFACE_STYLE_USAGE(.BOTH.,#465);
#465 = SURFACE_SIDE_STYLE('',(#466));
#466 = SURFACE_STYLE_FILL_AREA(#467);
#467 = FILL_AREA_STYLE('',(#468));
#468 = FILL_AREA_STYLE_COLOUR('',#454);
#469 = OVER_RIDING_STYLED_ITEM('overriding color',(#470),#258,#384);
#470 = PRESENTATION_STYLE_ASSIGNMENT((#471));
#471 = SURFACE_STYLE_USAGE(.BOTH.,#472);
#472 = SURFACE_SIDE_STYLE('',(#473));
#473 = SURFACE_STYLE_FILL_AREA(#474);
#474 = FILL_AREA_STYLE('',(#475));
#475 = FILL_AREA_STYLE_COLOUR('',#454);
#476 = OVER_RIDING_STYLED_ITEM('overriding color',(#477),#283,#384);
#477 = PRESENTATION_STYLE_ASSIGNMENT((#478));
#478 = SURFACE_STYLE_USAGE(.BOTH.,#479);
#479 = SURFACE_SIDE_STYLE('',(#480));
#480 = SURFACE_STYLE_FILL_AREA(#481);
#481 = FILL_AREA_STYLE('',(#482));
#482 = FILL_AREA_STYLE_COLOUR('',#454);
#483 = OVER_RIDING_STYLED_ITEM('overriding color',(#484),#308,#384);
#484 = PRESENTATION_STYLE_ASSIGNMENT((#485));
#485 = SURFACE_STYLE_USAGE(.BOTH.,#486);
#486 = SURFACE_SIDE_STYLE('',(#487));
#487 = SURFACE_STYLE_FILL_AREA(#488);
#488 = FILL_AREA_STYLE('',(#489));
#489 = FILL_AREA_STYLE_COLOUR('',#454);
#490 = OVER_RIDING_STYLED_ITEM('overriding color',(#491),#334,#384);
#491 = PRESENTATION_STYLE_ASSIGNMENT((#492));
#492 = SURFACE_STYLE_USAGE(.BOTH.,#493);
#493 = SURFACE_SIDE_STYLE('',(#494));
#494 = SURFACE_STYLE_FILL_AREA(#495);
#495 = FILL_AREA_STYLE('',(#496));
#496 = FILL_AREA_STYLE_COLOUR('',#454);
#497 = OVER_RIDING_STYLED_ITEM('overriding color',(#498),#343,#384);
#498 = PRESENTATION_STYLE_ASSIGNMENT((#499));
#499 = SURFACE_STYLE_USAGE(.BOTH.,#500);
#500 = SURFACE_SIDE_STYLE('',(#501));
#501 = SURFACE_STYLE_FILL_AREA(#502);
#502 = FILL_AREA_STYLE('',(#503));
#503 = FILL_AREA_STYLE_COLOUR('',#454);
#504 = OVER_RIDING_STYLED_ITEM('overriding color',(#505),#368,#384);
#505 = PRESENTATION_STYLE_ASSIGNMENT((#506));
#506 = SURFACE_STYLE_USAGE(.BOTH.,#507);
#507 = SURFACE_SIDE_STYLE('',(#508));
#508 = SURFACE_STYLE_FILL_AREA(#509);
#509 = FILL_AREA_STYLE('',(#510));
#510 = FILL_AREA_STYLE_COLOUR('',#454);
ENDSEC;
END-ISO-10303-21;
